<svg width="46" height="73" viewBox="0 0 46 73" fill="none" xmlns="http://www.w3.org/2000/svg">
<path d="M20.8133 71.2765C21.9848 72.4481 23.8843 72.4481 25.0559 71.2765L44.1478 52.1846C45.3193 51.013 45.3193 49.1135 44.1478 47.942C42.9762 46.7704 41.0767 46.7704 39.9051 47.942L22.9346 64.9125L5.96401 47.942C4.79244 46.7704 2.89294 46.7704 1.72137 47.942C0.549797 49.1135 0.549797 51.013 1.72137 52.1846L20.8133 71.2765ZM19.9346 0.25V3.12105H25.9346V0.25L19.9346 0.25ZM19.9346 8.86315V14.6052H25.9346V8.86315H19.9346ZM19.9346 20.3473V26.0894H25.9346V20.3473H19.9346ZM19.9346 31.8315V37.5736H25.9346V31.8315H19.9346ZM19.9346 43.3157V49.0578H25.9346V43.3157H19.9346ZM19.9346 54.7999V60.542H25.9346V54.7999H19.9346ZM19.9346 66.2841V69.1552H25.9346V66.2841H19.9346Z" fill="#11D9ED"/>
</svg>
