<?xml version="1.0" encoding="UTF-8"?>
<svg xmlns="http://www.w3.org/2000/svg" width="318" height="56" viewBox="0 0 318 56" fill="none">
  <path d="M0.962891 46.5227V25.9999H5.03932L11.489 39.1362L17.9091 25.9999H22.0448V46.5227H19.0828V29.7542L11.4594 45.0565L3.8064 29.7542V46.5227H0.962891Z" fill="#DCE4EF"></path>
  <path d="M43.297 40.5136L45.674 46.5227H49.0136L40.6016 25.9999H36.9954L28.5204 46.5227H31.7157L34.0926 40.5136L35.1182 37.9626L38.7244 28.9322L42.301 37.9626L43.297 40.5136Z" fill="#DCE4EF"></path>
  <path d="M110.582 40.5136L112.955 46.5227H116.299L107.887 25.9999H104.28L95.8055 46.5227H99.0008L101.378 40.5136L102.403 37.9626L106.01 28.9322L109.586 37.9626L110.582 40.5136Z" fill="#DCE4EF"></path>
  <path d="M55.5522 46.5227V25.9999H64.8158C66.182 25.9999 67.3816 26.2553 68.4072 26.7626C69.4328 27.2698 70.2362 27.9807 70.8101 28.8878C71.3877 29.7949 71.6765 30.8649 71.6765 32.0978C71.6765 33.427 71.2914 34.5859 70.5176 35.5707C69.7438 36.5593 68.733 37.2554 67.4816 37.6663L72.0245 46.519H68.596L64.3752 38.1032H58.629V46.519H55.5522V46.5227ZM58.629 35.53H64.5788C65.7895 35.53 66.7596 35.2227 67.4816 34.6081C68.2036 33.9935 68.5664 33.1567 68.5664 32.1015C68.5664 31.0463 68.2036 30.2392 67.4816 29.6246C66.7596 29.01 65.7895 28.7027 64.5788 28.7027H58.629V35.5337V35.53Z" fill="#DCE4EF"></path>
  <path d="M84.3427 46.5227V28.7286H77.1302V26.0035H94.6318V28.7286H87.4194V46.5227H84.3427Z" fill="#DCE4EF"></path>
  <path d="M209.068 47.9407V30.1466H201.856V27.4216H219.357V30.1466H212.145V47.9407H209.068Z" fill="#DCE4EF"></path>
  <path d="M234.722 48.2628C233.256 48.2628 231.875 47.9926 230.576 47.4557C229.276 46.9188 228.136 46.1672 227.158 45.1972C226.181 44.2308 225.422 43.1053 224.885 41.8242C224.348 40.5432 224.078 39.1622 224.078 37.6738C224.078 36.1854 224.344 34.8043 224.885 33.527C225.422 32.2459 226.181 31.1241 227.158 30.154C228.136 29.1877 229.272 28.4361 230.576 27.8955C231.875 27.3587 233.26 27.0884 234.722 27.0884C236.185 27.0884 237.629 27.3587 238.928 27.8955C240.228 28.4324 241.365 29.184 242.342 30.154C243.32 31.1204 244.082 32.2459 244.63 33.527C245.178 34.808 245.452 36.1891 245.452 37.6738C245.452 39.1585 245.178 40.5432 244.63 41.8242C244.082 43.1053 243.32 44.2271 242.342 45.1972C241.365 46.1635 240.228 46.9188 238.928 47.4557C237.629 47.9926 236.226 48.2628 234.722 48.2628ZM234.782 45.4193C235.837 45.4193 236.818 45.2231 237.729 44.8343C238.64 44.4419 239.439 43.9013 240.132 43.2052C240.824 42.5129 241.365 41.6909 241.746 40.7431C242.127 39.7953 242.316 38.7734 242.316 37.6812C242.316 36.5889 242.12 35.5671 241.731 34.6192C241.339 33.6714 240.802 32.8494 240.117 32.1571C239.432 31.4647 238.636 30.9204 237.729 30.528C236.822 30.1392 235.829 29.943 234.752 29.943C233.675 29.943 232.708 30.1392 231.79 30.528C230.872 30.9204 230.068 31.461 229.387 32.1571C228.702 32.8494 228.169 33.6714 227.788 34.6192C227.406 35.5671 227.217 36.5889 227.217 37.6812C227.217 38.7734 227.406 39.7953 227.788 40.7431C228.169 41.6909 228.702 42.5129 229.387 43.2052C230.072 43.8976 230.879 44.4419 231.805 44.8343C232.734 45.2268 233.726 45.4193 234.782 45.4193Z" fill="#DCE4EF"></path>
  <path d="M301.985 47.9407V27.4179H317.114V30.117H305.066V36.2742H312.922V38.8845H305.066V45.2453H317.232V47.9407H301.985Z" fill="#DCE4EF"></path>
  <path d="M252.372 47.9407V27.4179H261.636C263.002 27.4179 264.202 27.6734 265.227 28.1806C266.253 28.6878 267.056 29.3987 267.63 30.3058C268.208 31.2129 268.496 32.2829 268.496 33.5159C268.496 34.8451 268.111 36.0039 267.338 36.9888C266.564 37.9774 265.553 38.6734 264.302 39.0844L268.844 47.937H265.416L261.195 39.5213H255.449V47.937H252.372V47.9407ZM255.449 36.9481H261.399C262.609 36.9481 263.58 36.6408 264.302 36.0262C265.023 35.4115 265.386 34.5748 265.386 33.5196C265.386 32.4644 265.023 31.6572 264.302 31.0426C263.58 30.428 262.609 30.1207 261.399 30.1207H255.449V36.9518V36.9481Z" fill="#DCE4EF"></path>
  <path d="M277.353 47.9407V27.4179H286.616C287.983 27.4179 289.182 27.6734 290.208 28.1806C291.233 28.6878 292.037 29.3987 292.611 30.3058C293.188 31.2129 293.477 32.2829 293.477 33.5159C293.477 34.8451 293.092 36.0039 292.318 36.9888C291.544 37.9774 290.534 38.6734 289.282 39.0844L293.825 47.937H290.397L286.176 39.5213H280.43V47.937H277.353V47.9407ZM280.43 36.9481H286.379C287.59 36.9481 288.56 36.6408 289.282 36.0262C290.004 35.4115 290.367 34.5748 290.367 33.5196C290.367 32.4644 290.004 31.6572 289.282 31.0426C288.56 30.428 287.59 30.1207 286.379 30.1207H280.43V36.9518V36.9481Z" fill="#DCE4EF"></path>
  <path d="M135.785 12.9375C139.279 12.9375 142.112 10.1046 142.112 6.60997C142.112 3.11537 139.279 0.28244 135.785 0.28244C132.29 0.28244 129.457 3.11537 129.457 6.60997C129.457 10.1046 132.29 12.9375 135.785 12.9375Z" fill="#DCE4EF"></path>
  <path d="M180.722 12.9375C184.216 12.9375 187.049 10.1046 187.049 6.60997C187.049 3.11537 184.216 0.28244 180.722 0.28244C177.227 0.28244 174.394 3.11537 174.394 6.60997C174.394 10.1046 177.227 12.9375 180.722 12.9375Z" fill="#DCE4EF"></path>
  <path d="M143.849 35.5782L141.431 33.1641L141.457 18.6912L151.098 28.3324L143.849 35.5782Z" fill="#725BFF"></path>
  <path d="M172.843 35.5782L175.213 33.2086L175.231 18.6912L165.593 28.3287L172.843 35.5782Z" fill="#FF7480"></path>
  <path d="M165.593 42.8284L158.343 35.579L151.094 42.8284L158.343 50.0778L165.593 42.8284Z" fill="#28E8A3"></path>
  <path d="M172.842 35.579L165.593 28.3296L158.343 35.579L165.593 42.8284L172.842 35.579Z" fill="#FBCE13"></path>
  <path d="M158.347 35.5788L151.097 28.3295L143.848 35.5788L151.097 42.8282L158.347 35.5788Z" fill="#11D9ED"></path>
  <path d="M186.235 18.6912H175.213V55.2938H186.235V18.6912Z" fill="#DCE4EF"></path>
  <path d="M141.431 18.6912H130.409V55.2938H141.431V18.6912Z" fill="#DCE4EF"></path>
</svg>
